<mxfile host="Electron" agent="Mozilla/5.0 (Macintosh; Intel Mac OS X 10_15_7) AppleWebKit/537.36 (KHTML, like Gecko) draw.io/24.7.5 Chrome/126.0.6478.183 Electron/31.3.0 Safari/537.36" version="24.7.5">
  <diagram name="Page-1" id="bP89UNNYfhzRVC8BibK-">
    <mxGraphModel dx="1234" dy="1214" grid="1" gridSize="10" guides="1" tooltips="1" connect="1" arrows="1" fold="1" page="1" pageScale="1" pageWidth="827" pageHeight="1169" math="0" shadow="0">
      <root>
        <mxCell id="0" />
        <mxCell id="1" parent="0" />
        <mxCell id="_r53O7L0_cUfw0TNx5G7-4" style="edgeStyle=orthogonalEdgeStyle;rounded=0;orthogonalLoop=1;jettySize=auto;html=1;entryX=0;entryY=0.5;entryDx=0;entryDy=0;startArrow=classic;startFill=1;" edge="1" parent="1" source="_r53O7L0_cUfw0TNx5G7-1" target="_r53O7L0_cUfw0TNx5G7-3">
          <mxGeometry relative="1" as="geometry" />
        </mxCell>
        <mxCell id="_r53O7L0_cUfw0TNx5G7-5" style="edgeStyle=orthogonalEdgeStyle;rounded=0;orthogonalLoop=1;jettySize=auto;html=1;entryX=0.5;entryY=0;entryDx=0;entryDy=0;" edge="1" parent="1" source="_r53O7L0_cUfw0TNx5G7-1" target="_r53O7L0_cUfw0TNx5G7-2">
          <mxGeometry relative="1" as="geometry" />
        </mxCell>
        <mxCell id="_r53O7L0_cUfw0TNx5G7-1" value="main_menu" style="rounded=1;whiteSpace=wrap;html=1;" vertex="1" parent="1">
          <mxGeometry x="380" y="220" width="120" height="60" as="geometry" />
        </mxCell>
        <mxCell id="_r53O7L0_cUfw0TNx5G7-7" style="edgeStyle=orthogonalEdgeStyle;rounded=0;orthogonalLoop=1;jettySize=auto;html=1;entryX=0.5;entryY=0;entryDx=0;entryDy=0;" edge="1" parent="1" source="_r53O7L0_cUfw0TNx5G7-2" target="_r53O7L0_cUfw0TNx5G7-6">
          <mxGeometry relative="1" as="geometry" />
        </mxCell>
        <mxCell id="_r53O7L0_cUfw0TNx5G7-2" value="intro" style="rounded=1;whiteSpace=wrap;html=1;" vertex="1" parent="1">
          <mxGeometry x="380" y="340" width="120" height="60" as="geometry" />
        </mxCell>
        <mxCell id="_r53O7L0_cUfw0TNx5G7-3" value="options_menu" style="rounded=1;whiteSpace=wrap;html=1;fontStyle=1" vertex="1" parent="1">
          <mxGeometry x="580" y="220" width="120" height="60" as="geometry" />
        </mxCell>
        <mxCell id="_r53O7L0_cUfw0TNx5G7-9" style="edgeStyle=orthogonalEdgeStyle;rounded=0;orthogonalLoop=1;jettySize=auto;html=1;entryX=0.5;entryY=0;entryDx=0;entryDy=0;dashed=1;" edge="1" parent="1" source="_r53O7L0_cUfw0TNx5G7-6" target="_r53O7L0_cUfw0TNx5G7-8">
          <mxGeometry relative="1" as="geometry" />
        </mxCell>
        <mxCell id="_r53O7L0_cUfw0TNx5G7-6" value="level_1" style="rounded=1;whiteSpace=wrap;html=1;" vertex="1" parent="1">
          <mxGeometry x="380" y="450" width="120" height="60" as="geometry" />
        </mxCell>
        <mxCell id="_r53O7L0_cUfw0TNx5G7-11" style="edgeStyle=orthogonalEdgeStyle;rounded=0;orthogonalLoop=1;jettySize=auto;html=1;entryX=0.5;entryY=0;entryDx=0;entryDy=0;" edge="1" parent="1" source="_r53O7L0_cUfw0TNx5G7-8" target="_r53O7L0_cUfw0TNx5G7-10">
          <mxGeometry relative="1" as="geometry" />
        </mxCell>
        <mxCell id="_r53O7L0_cUfw0TNx5G7-8" value="level_5" style="rounded=1;whiteSpace=wrap;html=1;" vertex="1" parent="1">
          <mxGeometry x="380" y="585" width="120" height="60" as="geometry" />
        </mxCell>
        <mxCell id="_r53O7L0_cUfw0TNx5G7-13" style="edgeStyle=orthogonalEdgeStyle;rounded=0;orthogonalLoop=1;jettySize=auto;html=1;entryX=0.5;entryY=0;entryDx=0;entryDy=0;" edge="1" parent="1" source="_r53O7L0_cUfw0TNx5G7-10" target="_r53O7L0_cUfw0TNx5G7-12">
          <mxGeometry relative="1" as="geometry" />
        </mxCell>
        <mxCell id="_r53O7L0_cUfw0TNx5G7-10" value="level_infinite" style="rounded=1;whiteSpace=wrap;html=1;" vertex="1" parent="1">
          <mxGeometry x="380" y="690" width="120" height="60" as="geometry" />
        </mxCell>
        <mxCell id="_r53O7L0_cUfw0TNx5G7-12" value="end_game" style="rounded=1;whiteSpace=wrap;html=1;" vertex="1" parent="1">
          <mxGeometry x="380" y="800" width="120" height="60" as="geometry" />
        </mxCell>
      </root>
    </mxGraphModel>
  </diagram>
</mxfile>
